# xmcd
# 
# Track frame offsets:
#     150
#     15507
#     28016
#     43000
#     59912
#     74449
#     92736
#     109017
#     127865
#     145193
#     160623
#     179707
#     201013
#     215849
#     231431
#     243013
#     260752
#     273762
#     294730
#     310286
#     324748
#     342196
# 
# Disc length: 4776
# 
# Revision: 4
# Processed by: cddbd v1.5.2PL0 Copyright (c) Steve Scherf et al.
# Submitted via: fre:ac v1.0.31
# 
DISCID=5212a616
DTITLE=Various Artist - Dolly Disc 4
DYEAR=2009
DGENRE=Folk/Country
TTITLE0=Dolly Parton - Old Flames Can't Hold a Candle to You
TTITLE1=Dolly Parton - 9 To 5
TTITLE2=Dolly Parton - But You Know I Love You
TTITLE3=Dolly Parton - Single Women
TTITLE4=Dolly Parton - Heartbreak Express
TTITLE5=Dolly Parton - Do I Ever Cross Your Mind
TTITLE6=Dolly Parton - Potential New Boyfriend
TTITLE7=Kenny Rogers with Dolly Parton - Islands in the Stream
TTITLE8=Dolly Parton - Save the Last Dance for Me
TTITLE9=Dolly Parton - Tennessee Homesick Blues
TTITLE10=Dolly Parton - God Won't Get You
TTITLE11=Dolly Parton - What a Heartache
TTITLE12=Dolly Parton - Don't Call It Love
TTITLE13=Dolly Parton - Think About Love
TTITLE14=Dolly Parton - Why'd You Come in Here Lookin' Like That
TTITLE15=Dolly Parton - Yellow Roses
TTITLE16=Dolly Parton - Time for Me to Fly
TTITLE17=Dolly Parton - He's Alive
TTITLE18=Dolly Parton with Ricky Van Shelton - Rockin' Years
TTITLE19=Dolly Parton - Eagle When She Flies
TTITLE20=Dolly Parton - Silver and Gold
TTITLE21=Dolly Parton with Billy Ray Cyrus and Tanya Tucker and Mary Chapin Carpenter and Kathy Mattea and Pam Tillis - Romeo
EXTD=
EXTT0=
EXTT1=
EXTT2=
EXTT3=
EXTT4=
EXTT5=
EXTT6=
EXTT7=
EXTT8=
EXTT9=
EXTT10=
EXTT11=
EXTT12=
EXTT13=
EXTT14=
EXTT15=
EXTT16=
EXTT17=
EXTT18=
EXTT19=
EXTT20=
EXTT21=
PLAYORDER=
